<svg id="Capa_1" enable-background="new 0 0 512 512" height="512" viewBox="0 0 512 512" width="512" xmlns="http://www.w3.org/2000/svg"><g><path id="XMLID_8_" d="m292.927 160.181c-10.145 5.314-13.924 14.292-13.924 39.091 0 0 5.137-4.969 12.756-7.73 5.556-2.013 10.299-5.076 13.044-7.086 8.573-6.279 9.898-14.369 9.899-27.982 0 .001-13.98-.376-21.775 3.707z"/><path id="XMLID_7_" d="m232.757 165.991c-8.275 7.295-10.691 18.917-10.691 18.917l-27.393 106.13-22.783-86.859c-2.219-9.234-6.221-20.651-12.548-28.37-8.061-9.834-24.45-10.451-26.195-10.451-1.746 0-18.134.617-26.195 10.451-6.328 7.719-10.33 19.136-12.548 28.37l-22.784 86.858-27.393-106.13s-2.417-11.622-10.691-18.917c-13.418-11.828-33.536-9.297-33.536-9.297l52.456 198.341s17.307 1.245 25.965-3.168c11.373-5.798 16.787-10.271 23.671-37.256 6.137-24.06 23.292-94.73 24.894-99.76.792-2.487 1.795-8.429 6.16-8.429 4.463 0 5.382 5.938 6.16 8.429 1.574 5.039 18.757 75.7 24.894 99.76 6.883 26.986 12.297 31.458 23.671 37.256 8.659 4.414 25.965 3.168 25.965 3.168l52.456-198.341s-20.118-2.531-33.535 9.298z"/><path id="XMLID_6_" d="m314.687 189.076s-3.281 5.073-10.768 9.259c-4.808 2.688-9.421 4.509-14.372 6.884-8.296 3.98-10.543 8.414-10.543 15.178v134.637s13.236 1.673 21.895-2.741c11.145-5.682 13.706-11.158 13.804-35.825z"/><path id="XMLID_5_" d="m445.442 256.345 66.558-98.994s-28.091-4.782-42.001 7.879c-8.9 8.101-18.852 22.67-18.852 22.67l-24.489 35.302c-1.187 1.835-2.745 3.833-5.227 3.833s-4.04-1.998-5.227-3.833l-24.488-35.302s-9.953-14.568-18.853-22.67c-13.909-12.661-42.001-7.879-42.001-7.879l66.558 98.994-66.383 98.689s29.254 3.692 43.163-8.969c8.9-8.101 17.515-21.274 17.515-21.274l24.489-35.302c1.187-1.835 2.745-3.833 5.227-3.833s4.04 1.998 5.227 3.833l24.489 35.302s9.12 13.173 18.02 21.274c13.909 12.661 42.655 8.969 42.655 8.969z"/></g></svg>